<?xml version="1.0" encoding="UTF-8" standalone="no"?>
<!-- Generator: Adobe Illustrator 25.0.1, SVG Export Plug-In . SVG Version: 6.00 Build 0)  -->

<svg
   version="1.0"
   id="Layer_1"
   x="0px"
   y="0px"
   viewBox="0 0 293.90032 47.999999"
   xml:space="preserve"
   width="293.90033"
   height="48"
   xmlns="http://www.w3.org/2000/svg"
   xmlns:svg="http://www.w3.org/2000/svg"><defs
   id="defs12" />
<style
   type="text/css"
   id="style1">
	.st0{fill:#1D55CC;}
	.st1{fill:#001238;}
	.st2{fill:none;}
</style>











<g
   id="g12"
   transform="matrix(1.5946844,0,0,1.5946844,-50.710964,-108.43854)"><path
     class="st0"
     d="m 69,82.6 c 0.2,-0.6 0.3,-1.2 0.3,-1.8 0,-4.2 -3.4,-7.6 -7.6,-7.6 0,0 0,0 0,0 -0.9,0 -1.8,0.2 -2.7,0.5 -1.9,-3.5 -5.6,-5.7 -9.5,-5.7 -5.9,0 -10.6,4.8 -10.6,10.7 0,0.7 0.1,1.3 0.2,2 -3.3,0.4 -5.6,3.4 -5.2,6.7 0.2,1.8 1.3,3.4 2.9,4.4 1.6,-0.9 3.4,-1.5 5.1,-2 0,0 -2.2,-7.5 0.4,-8.1 3.1,-0.6 3.3,0.3 9.6,-0.4 4.2,-0.4 8.5,-0.3 12.7,0.4 1.2,0 1.1,2.5 0.9,4.3 -0.1,1.2 -0.4,2.4 -0.8,3.5 2.2,0.6 4.3,1.4 6.2,2.5 1.5,-0.9 2.4,-2.5 2.4,-4.2 0.1,-2.7 -1.8,-5 -4.3,-5.2 z"
     id="path1" /><path
     class="st0"
     d="m 53.7,93.7 c 8.8,0 16.7,1.2 21.8,4.4 -3.3,-4.4 -11.8,-7.5 -21.8,-7.5 -10,0 -18.5,3 -21.9,7.4 5.2,-3.1 13.1,-4.3 21.9,-4.3 z"
     id="path2" /><path
     class="st1"
     d="m 177.7,88.5 c -0.6,0.8 -1.3,1.4 -2.2,1.8 -1.7,0.8 -3.7,0.2 -4.7,-1.4 l 10,-4.1 c -0.1,-0.4 -0.3,-0.7 -0.4,-1.1 -1.7,-4 -5.4,-6.9 -10.2,-4.9 -4.1,1.8 -5.7,6.3 -3.9,10.5 v 0.1 c 1.5,4 6,6 10,4.5 0.2,-0.1 0.4,-0.1 0.6,-0.2 1.3,-0.5 2.5,-1.4 3.4,-2.5 z M 171.6,82 c 1.7,-0.7 3.3,0.1 4.3,1.8 l -6.1,2.6 c -0.6,-2 0,-3.6 1.8,-4.4 z"
     id="path3" /><path
     class="st1"
     d="m 75.9,84 v 0 c -0.2,-5.6 4.2,-10.2 9.7,-10.4 0.1,0 0.3,0 0.4,0 2.9,-0.1 5.8,1.1 7.8,3.2 l -1.6,1.7 c -1.6,-1.7 -3.9,-2.7 -6.3,-2.8 -4.4,0 -7.7,3.6 -7.7,8.2 V 84 c 0,4.7 3.4,8.3 7.7,8.3 2.4,0 4.8,-1 6.4,-2.8 l 1.5,1.5 c -2,2.3 -5,3.5 -8,3.5 -5.6,-0.2 -10,-4.8 -9.9,-10.5 0,0.1 0,0 0,0 z"
     id="path4" /><path
     class="st1"
     d="m 95.7,73 h 2.2 v 21 h -2.2 z"
     id="path5" /><path
     class="st1"
     d="m 99.6,86.5 v 0 c 0,-4.3 3.4,-7.8 7.6,-7.8 0,0 0,0 0.1,0 4.2,0 7.7,3.4 7.7,7.6 0,0 0,0.1 0,0.1 v 0.1 c 0,4.3 -3.4,7.7 -7.7,7.7 -4.3,0 -7.7,-3.4 -7.7,-7.7 z m 13.1,0 v 0 c 0.1,-3.1 -2.3,-5.7 -5.4,-5.8 0,0 -0.1,0 -0.1,0 -3,0 -5.4,2.4 -5.4,5.4 0,0.1 0,0.2 0,0.2 v 0.1 c -0.2,3 2.1,5.6 5.1,5.8 3,0.2 5.6,-2.1 5.8,-5.1 0,-0.1 0,-0.3 0,-0.6 z"
     id="path6" /><path
     class="st1"
     d="m 116.8,88.3 v -9.2 h 2.2 v 8.6 c 0,2.8 1.5,4.5 4.1,4.5 2.4,0 4.4,-1.9 4.4,-4.3 0,-0.1 0,-0.2 0,-0.4 v -8.4 h 2.2 v 14.8 h -2.2 v -2.6 c -1,1.8 -2.9,2.9 -5,2.8 -3.7,0.1 -5.7,-2.3 -5.7,-5.8 z"
     id="path7" /><path
     class="st1"
     d="m 131.2,86.5 v 0 c 0,-4.9 3.5,-7.7 7.1,-7.7 2.3,0 4.4,1.2 5.7,3.1 V 73 h 2.2 V 94 H 144 v -3 c -1.2,2 -3.3,3.3 -5.7,3.3 -3.7,-0.1 -7.1,-2.9 -7.1,-7.8 z m 12.7,0 v 0 c 0.2,-3 -2.2,-5.6 -5.2,-5.8 0,0 -0.1,0 -0.1,0 -2.9,0 -5.2,2.1 -5.2,5.7 v 0.1 c 0,3.5 2.4,5.7 5.2,5.7 3,-0.1 5.4,-2.6 5.3,-5.7 0,0.1 0,0.1 0,0 z"
     id="path8" /><path
     class="st1"
     d="m 152.8,91.9 v 2 h -4.3 V 73 h 4.3 v 7.7 c 1,-1.6 2.9,-2.6 4.8,-2.5 3.6,0 7,2.8 7,7.9 v 0.1 c 0,5.1 -3.3,7.9 -7,7.9 -1.9,0.1 -3.6,-0.8 -4.8,-2.2 z m 7.5,-5.6 v 0 c 0,-2.6 -1.8,-4.3 -3.8,-4.3 -2.2,0.1 -3.8,1.9 -3.8,4 0,0.1 0,0.1 0,0.2 v 0.1 c 0,2.6 1.6,4.2 3.8,4.2 2.2,-0.1 3.9,-1.9 3.8,-4 0,-0.1 0,-0.2 0,-0.2 z"
     id="path9" /><path
     class="st1"
     d="m 181.6,86.3 v 0 c 0,-5.1 3.3,-8 7,-8 1.9,-0.1 3.7,0.8 4.8,2.3 V 73 h 4.3 v 21 h -4.3 v -2.2 c -1,1.6 -2.9,2.5 -4.8,2.5 -3.6,-0.1 -7,-2.9 -7,-8 z m 11.8,0 v 0 c 0,-2.6 -1.7,-4.3 -3.8,-4.3 -2.1,0 -3.8,1.7 -3.8,4.2 v 0.1 c -0.2,2.1 1.3,4 3.3,4.2 2.1,0.2 4,-1.3 4.2,-3.3 0.1,-0.4 0.1,-0.7 0.1,-0.9 z"
     id="path10" /><path
     class="st1"
     d="m 199.1,91.9 1.8,-2.8 c 1.4,1.1 3.1,1.7 4.9,1.8 1.3,0 1.8,-0.5 1.8,-1.1 v -0.1 c 0,-0.9 -1.5,-1.3 -3.2,-1.8 -2.1,-0.6 -4.6,-1.7 -4.6,-4.6 v -0.1 c 0,-3.1 2.5,-4.9 5.6,-4.9 2,0 4,0.6 5.7,1.8 l -1.6,3 c -1.2,-0.8 -2.7,-1.3 -4.1,-1.5 -1,0 -1.6,0.5 -1.6,1 v 0.1 c 0,0.8 1.5,1.3 3.1,1.8 2.1,0.7 4.7,1.7 4.7,4.6 v 0.1 c 0,3.4 -2.6,4.9 -5.9,4.9 -2.4,0 -4.7,-0.8 -6.6,-2.2 z"
     id="path11" /><path
     class="st1"
     d="m 213,92.8 v 0 c 0,-0.9 0.7,-1.5 1.5,-1.6 0,0 0,0 0,0 0.9,0 1.5,0.7 1.6,1.6 v 0 c 0,0.9 -0.7,1.6 -1.5,1.6 0,0 0,0 0,0 -0.8,0 -1.5,-0.6 -1.6,-1.4 0,-0.1 0,-0.2 0,-0.2 z m 2.9,0 v 0 c 0,-0.8 -0.6,-1.4 -1.3,-1.4 0,0 0,0 0,0 -0.8,0 -1.4,0.6 -1.4,1.4 v 0 c 0,0.7 0.6,1.4 1.3,1.4 0,0 0,0 0.1,0 0.7,0.1 1.3,-0.5 1.4,-1.2 -0.1,-0.1 -0.1,-0.2 -0.1,-0.2 z m -2,-0.9 h 0.7 c 0.2,0 0.3,0.1 0.5,0.2 0.1,0.1 0.2,0.2 0.2,0.4 v 0 c 0,0.2 -0.1,0.4 -0.4,0.5 l 0.4,0.6 h -0.5 L 214.4,93 h -0.3 v 0.6 h -0.4 c 0.1,-0.1 0.2,-1.6 0.2,-1.7 z m 0.7,0.9 c 0.1,0 0.3,-0.1 0.3,-0.2 0,0 0,0 0,-0.1 v 0 c 0,-0.1 -0.1,-0.3 -0.2,-0.3 0,0 0,0 -0.1,0 h -0.4 v 0.4 c 0,0.2 0.4,0.2 0.4,0.2 z"
     id="path12" /></g>
<rect
   x="-4.8000011"
   y="-3.9999993"
   class="st2"
   width="194"
   height="38"
   id="rect12" />
</svg>
