<svg xmlns="http://www.w3.org/2000/svg" xmlns:xlink="http://www.w3.org/1999/xlink" width="591" zoomAndPan="magnify" viewBox="0 0 443.25 178.499995" height="238" preserveAspectRatio="xMidYMid meet" version="1.0"><defs><g/></defs><g fill="#394dac" fill-opacity="1"><g transform="translate(74.851574, 113.919461)"><g><path d="M 59.5625 -47.296875 L 37.0625 -24.703125 L 61.78125 0 L 40.75 0 L 21.859375 -18.90625 L 21.859375 0 L 5.53125 0 L 5.53125 -79.296875 L 21.859375 -79.296875 L 21.859375 -30.796875 L 38.359375 -47.296875 Z M 59.5625 -47.296875 "/></g></g></g><g fill="#394dac" fill-opacity="1"><g transform="translate(125.730249, 113.919461)"><g><path d="M 8.75 -5.84375 C 4.332031 -10.675781 2.125 -16.59375 2.125 -23.59375 C 2.125 -30.601562 4.332031 -36.535156 8.75 -41.390625 C 13.175781 -46.253906 18.800781 -48.6875 25.625 -48.6875 C 31.894531 -48.6875 37.0625 -46.71875 41.125 -42.78125 L 41.125 -47.296875 L 57.4375 -47.296875 L 57.4375 0 L 41.3125 0 L 41.3125 -5.34375 L 41.125 -5.34375 C 37.0625 -0.851562 31.894531 1.390625 25.625 1.390625 C 18.800781 1.390625 13.175781 -1.019531 8.75 -5.84375 Z M 22.625 -31.625 C 20.507812 -29.53125 19.453125 -26.851562 19.453125 -23.59375 C 19.453125 -20.34375 20.46875 -17.6875 22.5 -15.625 C 24.53125 -13.570312 27.203125 -12.546875 30.515625 -12.546875 C 33.710938 -12.546875 36.335938 -13.585938 38.390625 -15.671875 C 40.453125 -17.765625 41.484375 -20.410156 41.484375 -23.609375 C 41.484375 -26.859375 40.421875 -29.53125 38.296875 -31.625 C 36.179688 -33.71875 33.585938 -34.765625 30.515625 -34.765625 C 27.378906 -34.765625 24.75 -33.71875 22.625 -31.625 Z M 22.625 -31.625 "/></g></g></g><g fill="#394dac" fill-opacity="1"><g transform="translate(180.019443, 113.919461)"><g><path d="M 5.53125 0 L 5.53125 -47.296875 L 21.859375 -47.296875 L 21.859375 -42.328125 L 22.03125 -42.328125 C 26.28125 -46.566406 30.800781 -48.6875 35.59375 -48.6875 C 37.925781 -48.6875 40.242188 -48.378906 42.546875 -47.765625 C 44.859375 -47.148438 47.070312 -46.195312 49.1875 -44.90625 C 51.3125 -43.613281 53.035156 -41.78125 54.359375 -39.40625 C 55.679688 -37.039062 56.34375 -34.296875 56.34375 -31.171875 L 56.34375 0 L 40.015625 0 L 40.015625 -26.734375 C 40.015625 -29.191406 39.226562 -31.34375 37.65625 -33.1875 C 36.09375 -35.03125 34.050781 -35.953125 31.53125 -35.953125 C 29.070312 -35.953125 26.84375 -35 24.84375 -33.09375 C 22.851562 -31.195312 21.859375 -29.078125 21.859375 -26.734375 L 21.859375 0 Z M 5.53125 0 "/></g></g></g><g fill="#394dac" fill-opacity="1"><g transform="translate(232.280761, 113.919461)"><g><path d="M 59.5625 -47.296875 L 37.0625 -24.703125 L 61.78125 0 L 40.75 0 L 21.859375 -18.90625 L 21.859375 0 L 5.53125 0 L 5.53125 -79.296875 L 21.859375 -79.296875 L 21.859375 -30.796875 L 38.359375 -47.296875 Z M 59.5625 -47.296875 "/></g></g></g><g fill="#394dac" fill-opacity="1"><g transform="translate(283.159436, 113.919461)"><g><path d="M 10 -5.609375 C 4.75 -10.285156 2.125 -16.28125 2.125 -23.59375 C 2.125 -30.914062 4.859375 -36.925781 10.328125 -41.625 C 15.796875 -46.332031 22.554688 -48.6875 30.609375 -48.6875 C 38.535156 -48.6875 45.21875 -46.316406 50.65625 -41.578125 C 56.101562 -36.847656 58.828125 -30.851562 58.828125 -23.59375 C 58.828125 -16.34375 56.164062 -10.363281 50.84375 -5.65625 C 45.53125 -0.957031 38.785156 1.390625 30.609375 1.390625 C 22.128906 1.390625 15.257812 -0.941406 10 -5.609375 Z M 22.625 -31.625 C 20.507812 -29.53125 19.453125 -26.851562 19.453125 -23.59375 C 19.453125 -20.34375 20.46875 -17.6875 22.5 -15.625 C 24.53125 -13.570312 27.203125 -12.546875 30.515625 -12.546875 C 33.710938 -12.546875 36.335938 -13.585938 38.390625 -15.671875 C 40.453125 -17.765625 41.484375 -20.410156 41.484375 -23.609375 C 41.484375 -26.859375 40.421875 -29.53125 38.296875 -31.625 C 36.179688 -33.71875 33.585938 -34.765625 30.515625 -34.765625 C 27.378906 -34.765625 24.75 -33.71875 22.625 -31.625 Z M 22.625 -31.625 "/></g></g></g><g fill="#394dac" fill-opacity="1"><g transform="translate(335.420744, 113.919461)"><g><path d="M 16.046875 -19.734375 C 18.992188 -19.734375 21.492188 -18.703125 23.546875 -16.640625 C 25.609375 -14.578125 26.640625 -12.070312 26.640625 -9.125 C 26.640625 -6.238281 25.609375 -3.765625 23.546875 -1.703125 C 21.492188 0.359375 18.992188 1.390625 16.046875 1.390625 C 13.148438 1.390625 10.671875 0.359375 8.609375 -1.703125 C 6.554688 -3.765625 5.53125 -6.238281 5.53125 -9.125 C 5.53125 -12.070312 6.554688 -14.578125 8.609375 -16.640625 C 10.671875 -18.703125 13.148438 -19.734375 16.046875 -19.734375 Z M 16.046875 -19.734375 "/></g></g></g><g fill="#313030" fill-opacity="1"><g transform="translate(166.479632, 138.960913)"><g><path d="M 3.3125 -8.40625 L 3.3125 -2.1875 C 3.3125 -1.71875 3.398438 -1.398438 3.578125 -1.234375 C 3.753906 -1.066406 3.984375 -0.984375 4.265625 -0.984375 C 4.335938 -0.984375 4.425781 -1 4.53125 -1.03125 C 4.644531 -1.0625 4.734375 -1.078125 4.796875 -1.078125 C 4.910156 -1.078125 5.007812 -1.03125 5.09375 -0.9375 C 5.175781 -0.84375 5.21875 -0.734375 5.21875 -0.609375 C 5.21875 -0.441406 5.117188 -0.296875 4.921875 -0.171875 C 4.722656 -0.0546875 4.484375 0 4.203125 0 C 3.867188 0 3.570312 -0.03125 3.3125 -0.09375 C 3.0625 -0.15625 2.8125 -0.335938 2.5625 -0.640625 C 2.320312 -0.953125 2.203125 -1.453125 2.203125 -2.140625 L 2.203125 -8.40625 L 0.859375 -8.40625 C 0.703125 -8.40625 0.570312 -8.453125 0.46875 -8.546875 C 0.363281 -8.648438 0.3125 -8.773438 0.3125 -8.921875 C 0.3125 -9.066406 0.363281 -9.1875 0.46875 -9.28125 C 0.570312 -9.382812 0.703125 -9.4375 0.859375 -9.4375 L 2.203125 -9.4375 L 2.203125 -11.5 C 2.203125 -11.65625 2.253906 -11.785156 2.359375 -11.890625 C 2.460938 -12.003906 2.597656 -12.0625 2.765625 -12.0625 C 2.921875 -12.0625 3.050781 -12.003906 3.15625 -11.890625 C 3.257812 -11.785156 3.3125 -11.65625 3.3125 -11.5 L 3.3125 -9.4375 L 5.171875 -9.4375 C 5.304688 -9.4375 5.425781 -9.378906 5.53125 -9.265625 C 5.632812 -9.160156 5.6875 -9.039062 5.6875 -8.90625 C 5.6875 -8.757812 5.632812 -8.640625 5.53125 -8.546875 C 5.4375 -8.453125 5.316406 -8.40625 5.171875 -8.40625 Z M 3.3125 -8.40625 "/></g></g></g><g fill="#313030" fill-opacity="1"><g transform="translate(184.865047, 138.960913)"><g><path d="M 5.890625 -9.703125 C 6.140625 -9.703125 6.363281 -9.648438 6.5625 -9.546875 C 6.757812 -9.453125 6.859375 -9.304688 6.859375 -9.109375 C 6.859375 -8.929688 6.804688 -8.789062 6.703125 -8.6875 C 6.609375 -8.582031 6.492188 -8.53125 6.359375 -8.53125 C 6.296875 -8.53125 6.175781 -8.5625 6 -8.625 C 5.820312 -8.6875 5.648438 -8.71875 5.484375 -8.71875 C 5.023438 -8.71875 4.570312 -8.539062 4.125 -8.1875 C 3.675781 -7.832031 3.304688 -7.375 3.015625 -6.8125 C 2.722656 -6.257812 2.578125 -5.703125 2.578125 -5.140625 L 2.578125 -0.5625 C 2.578125 -0.394531 2.523438 -0.257812 2.421875 -0.15625 C 2.316406 -0.0507812 2.179688 0 2.015625 0 C 1.859375 0 1.726562 -0.0507812 1.625 -0.15625 C 1.519531 -0.257812 1.46875 -0.394531 1.46875 -0.5625 L 1.46875 -8.859375 C 1.46875 -9.023438 1.519531 -9.160156 1.625 -9.265625 C 1.726562 -9.367188 1.859375 -9.421875 2.015625 -9.421875 C 2.179688 -9.421875 2.316406 -9.367188 2.421875 -9.265625 C 2.523438 -9.160156 2.578125 -9.023438 2.578125 -8.859375 L 2.578125 -7.234375 C 2.859375 -7.941406 3.285156 -8.523438 3.859375 -8.984375 C 4.441406 -9.453125 5.117188 -9.691406 5.890625 -9.703125 Z M 5.890625 -9.703125 "/></g></g></g><g fill="#313030" fill-opacity="1"><g transform="translate(204.103519, 138.960913)"><g><path d="M 9.15625 -9.484375 C 9.320312 -9.484375 9.457031 -9.425781 9.5625 -9.3125 C 9.664062 -9.195312 9.71875 -9.0625 9.71875 -8.90625 L 9.71875 -0.5625 C 9.71875 -0.394531 9.664062 -0.257812 9.5625 -0.15625 C 9.457031 -0.0507812 9.320312 0 9.15625 0 C 9 0 8.867188 -0.0507812 8.765625 -0.15625 C 8.660156 -0.257812 8.609375 -0.394531 8.609375 -0.5625 L 8.609375 -1.796875 C 8.296875 -1.242188 7.828125 -0.773438 7.203125 -0.390625 C 6.585938 -0.00390625 5.914062 0.1875 5.1875 0.1875 C 4.363281 0.1875 3.617188 -0.0234375 2.953125 -0.453125 C 2.296875 -0.890625 1.773438 -1.484375 1.390625 -2.234375 C 1.015625 -2.992188 0.828125 -3.84375 0.828125 -4.78125 C 0.828125 -5.71875 1.019531 -6.5625 1.40625 -7.3125 C 1.789062 -8.0625 2.3125 -8.644531 2.96875 -9.0625 C 3.632812 -9.488281 4.367188 -9.703125 5.171875 -9.703125 C 5.910156 -9.703125 6.585938 -9.519531 7.203125 -9.15625 C 7.828125 -8.800781 8.296875 -8.332031 8.609375 -7.75 L 8.609375 -8.90625 C 8.609375 -9.0625 8.660156 -9.195312 8.765625 -9.3125 C 8.867188 -9.425781 9 -9.484375 9.15625 -9.484375 Z M 5.296875 -0.859375 C 5.941406 -0.859375 6.519531 -1.023438 7.03125 -1.359375 C 7.550781 -1.703125 7.957031 -2.171875 8.25 -2.765625 C 8.539062 -3.367188 8.6875 -4.039062 8.6875 -4.78125 C 8.6875 -5.5 8.539062 -6.15625 8.25 -6.75 C 7.957031 -7.34375 7.550781 -7.804688 7.03125 -8.140625 C 6.519531 -8.484375 5.941406 -8.65625 5.296875 -8.65625 C 4.660156 -8.65625 4.082031 -8.488281 3.5625 -8.15625 C 3.050781 -7.820312 2.648438 -7.359375 2.359375 -6.765625 C 2.066406 -6.179688 1.921875 -5.519531 1.921875 -4.78125 C 1.921875 -4.039062 2.0625 -3.367188 2.34375 -2.765625 C 2.632812 -2.171875 3.035156 -1.703125 3.546875 -1.359375 C 4.066406 -1.023438 4.648438 -0.859375 5.296875 -0.859375 Z M 5.296875 -0.859375 "/></g></g></g><g fill="#313030" fill-opacity="1"><g transform="translate(227.366217, 138.960913)"><g><path d="M 8.625 -9.65625 C 8.75 -9.65625 8.863281 -9.613281 8.96875 -9.53125 C 9.082031 -9.445312 9.140625 -9.335938 9.140625 -9.203125 C 9.140625 -9.085938 9.113281 -8.984375 9.0625 -8.890625 L 5.4375 -0.359375 C 5.382812 -0.253906 5.3125 -0.164062 5.21875 -0.09375 C 5.125 -0.03125 5.03125 0 4.9375 0 C 4.8125 0.0078125 4.695312 -0.015625 4.59375 -0.078125 C 4.5 -0.140625 4.425781 -0.234375 4.375 -0.359375 L 0.71875 -8.890625 C 0.71875 -8.910156 0.707031 -8.941406 0.6875 -8.984375 C 0.675781 -9.035156 0.671875 -9.085938 0.671875 -9.140625 C 0.671875 -9.285156 0.71875 -9.410156 0.8125 -9.515625 C 0.914062 -9.628906 1.0625 -9.6875 1.25 -9.6875 C 1.351562 -9.6875 1.453125 -9.648438 1.546875 -9.578125 C 1.640625 -9.515625 1.710938 -9.425781 1.765625 -9.3125 L 4.921875 -1.796875 L 8.09375 -9.3125 C 8.132812 -9.425781 8.203125 -9.515625 8.296875 -9.578125 C 8.390625 -9.648438 8.5 -9.675781 8.625 -9.65625 Z M 8.625 -9.65625 "/></g></g></g><g fill="#313030" fill-opacity="1"><g transform="translate(249.27516, 138.960913)"><g><path d="M 9.484375 -5.28125 C 9.484375 -5.132812 9.425781 -5.007812 9.3125 -4.90625 C 9.195312 -4.800781 9.066406 -4.75 8.921875 -4.75 L 1.90625 -4.75 C 1.90625 -4.007812 2.054688 -3.34375 2.359375 -2.75 C 2.660156 -2.164062 3.09375 -1.703125 3.65625 -1.359375 C 4.21875 -1.023438 4.882812 -0.859375 5.65625 -0.859375 C 6.25 -0.859375 6.78125 -0.976562 7.25 -1.21875 C 7.71875 -1.46875 8.097656 -1.785156 8.390625 -2.171875 C 8.523438 -2.285156 8.648438 -2.34375 8.765625 -2.34375 C 8.890625 -2.34375 9 -2.289062 9.09375 -2.1875 C 9.195312 -2.09375 9.25 -1.984375 9.25 -1.859375 C 9.25 -1.722656 9.1875 -1.59375 9.0625 -1.46875 C 8.664062 -0.976562 8.164062 -0.578125 7.5625 -0.265625 C 6.96875 0.0351562 6.335938 0.1875 5.671875 0.1875 C 4.722656 0.1875 3.882812 -0.015625 3.15625 -0.421875 C 2.425781 -0.828125 1.851562 -1.398438 1.4375 -2.140625 C 1.03125 -2.878906 0.828125 -3.726562 0.828125 -4.6875 C 0.828125 -5.707031 1.03125 -6.597656 1.4375 -7.359375 C 1.84375 -8.117188 2.378906 -8.695312 3.046875 -9.09375 C 3.710938 -9.5 4.421875 -9.703125 5.171875 -9.703125 C 5.910156 -9.703125 6.601562 -9.523438 7.25 -9.171875 C 7.90625 -8.828125 8.4375 -8.320312 8.84375 -7.65625 C 9.25 -6.988281 9.460938 -6.195312 9.484375 -5.28125 Z M 5.171875 -8.625 C 4.453125 -8.625 3.785156 -8.375 3.171875 -7.875 C 2.566406 -7.382812 2.175781 -6.675781 2 -5.75 L 8.328125 -5.75 L 8.328125 -5.890625 C 8.265625 -6.453125 8.078125 -6.9375 7.765625 -7.34375 C 7.460938 -7.757812 7.078125 -8.078125 6.609375 -8.296875 C 6.148438 -8.515625 5.671875 -8.625 5.171875 -8.625 Z M 5.171875 -8.625 "/></g></g></g><g fill="#313030" fill-opacity="1"><g transform="translate(271.684803, 138.960913)"><g><path d="M 2.6875 -0.5625 C 2.6875 -0.394531 2.632812 -0.257812 2.53125 -0.15625 C 2.425781 -0.0507812 2.296875 0 2.140625 0 C 1.972656 0 1.835938 -0.0507812 1.734375 -0.15625 C 1.628906 -0.257812 1.578125 -0.394531 1.578125 -0.5625 L 1.578125 -13.171875 C 1.578125 -13.328125 1.628906 -13.457031 1.734375 -13.5625 C 1.835938 -13.664062 1.972656 -13.71875 2.140625 -13.71875 C 2.296875 -13.71875 2.425781 -13.664062 2.53125 -13.5625 C 2.632812 -13.457031 2.6875 -13.328125 2.6875 -13.171875 Z M 2.6875 -0.5625 "/></g></g></g></svg>