<?xml version="1.0" encoding="UTF-8" standalone="no"?>
<!-- Created with Inkscape (http://www.inkscape.org/) -->

<svg
   width="70.930244mm"
   height="48.000004mm"
   viewBox="0 0 70.930246 48.000003"
   version="1.1"
   id="svg1"
   xmlns="http://www.w3.org/2000/svg"
   xmlns:svg="http://www.w3.org/2000/svg">
  <defs
     id="defs1">
    <clipPath
       id="clip_13">
      <path
         transform="matrix(1,0,0,-1,0,1070)"
         d="M 0,1070 H 1700 V 0 H 0 Z"
         id="path2" />
    </clipPath>
  </defs>
  <g
     id="g12"
     transform="matrix(0.57442268,0,0,0.57442268,-352.1465,-284.39283)"
     style="fill:#000080">
    <g
       clip-path="url(#clip_13)"
       id="g10"
       style="fill:#000080">
      <g
         id="g1"
         transform="matrix(1.0469809,0,0,1.0469809,-28.801348,-23.259912)">
        <path
           transform="matrix(0.99999998,0,0,-0.99999998,642.1741,562.4258)"
           d="M 0,0 20.33,8.78 V -12.48 H 0 Z"
           fill="#ffffff"
           id="path5"
           style="fill:#000080" />
        <path
           transform="matrix(1,0,0,-1,707.5242,545.3333)"
           d="M 0,0 23.22,-29.57 H -3.05 l -15.29,19.82 c -4.69,6.1 -11.93,9.68 -19.62,9.75 h -56.52 l 15.69,20.34 h 13.44 v 29.9 h 20.33 v -29.9 h 7.06 c 7.69,0.07 14.93,3.65 19.62,9.75 L -2.8,50.24 H 23.46 L 0,20.34 -2.36,17.32 c -2.09,-2.66 -4.46,-5.06 -7.02,-7.15 2.56,-2.1 4.93,-4.49 7.02,-7.16 z"
           fill="#ffffff"
           id="path6"
           style="fill:#000080" />
      </g>
    </g>
  </g>
</svg>
