<?xml version="1.0" encoding="UTF-8" standalone="no"?>
<!-- Generator: Adobe Illustrator 25.0.1, SVG Export Plug-In . SVG Version: 6.00 Build 0)  -->

<svg
   version="1.0"
   id="katman_1"
   x="0px"
   y="0px"
   viewBox="0 0 249.31794 48"
   xml:space="preserve"
   width="249.31795"
   height="48"
   xmlns="http://www.w3.org/2000/svg"
   xmlns:svg="http://www.w3.org/2000/svg"><defs
   id="defs3" />
<style
   type="text/css"
   id="style1">
	.st0{fill:#2CA01C;}
	.st1{fill:#FFFFFF;}
</style>



<g
   id="g3"
   transform="matrix(0.4729064,0,0,0.4729064,-19.389162,-64.31527)"><path
     d="m 565.6,213 c 0,-1 -1,-1.4 -1.9,-1.4 H 562 v 5 h 0.9 v -2 h 0.7 l 1.1,2 h 1.1 l -1.3,-2.2 c 0.6,-0.1 1.1,-0.7 1.1,-1.3 z m -2.7,0.8 v -1.4 h 0.8 c 0.5,0 1,0.1 1,0.7 0,0.6 -0.6,0.7 -1.1,0.7 z m 0.8,-4 c -2.4,0.1 -4.4,2.1 -4.3,4.5 0.1,2.4 2.1,4.4 4.5,4.3 2.4,-0.1 4.4,-2.1 4.3,-4.5 0,-2.4 -2,-4.4 -4.4,-4.4 0,0 -0.1,0 -0.1,0.1 z m 0,8 c -2.1,0 -3.8,-1.7 -3.8,-3.8 0,-2.1 1.7,-3.8 3.8,-3.8 2.1,0 3.8,1.7 3.8,3.8 0,0 0,0.1 0,0.1 0,2.1 -1.7,3.8 -3.8,3.8 z m -286,-7.3 c -6.5,0 -9.8,-5.9 -9.8,-11.5 0,-5.6 3.6,-11.2 9.5,-11.2 2.8,0 6.3,1.4 7.7,3.4 l 6.8,-6.9 c -3.9,-3.7 -9.1,-5.8 -14.5,-5.6 -12,0 -20.7,8.6 -20.7,20.4 0,12 8.6,20.5 21,20.5 5.8,0 11.2,-1.7 14.4,-5.2 l -6.7,-7.2 c -2,2.1 -4.8,3.3 -7.7,3.3 z m -38.5,8 H 250 V 179.8 H 239.3 Z M 219.7,201 c 0,4.5 -3,9.4 -8.4,9.4 -4.3,0 -6.6,-3 -6.6,-9.3 V 179.9 H 194 v 24 c 0,8 4,15.8 14.7,15.8 5,0 9.2,-4 11.3,-7 h 0.2 v 5.9 h 10.2 v -38.8 h -10.7 z m -45,-16.3 h -0.2 c -1.5,-1.7 -5.6,-6 -12.2,-6 -10.9,0 -19.3,8.5 -19.3,20.3 0,12 7.8,20.6 18.8,20.6 4.8,-0.1 9.2,-2.2 12.4,-5.8 h 0.2 v 23.7 H 185 v -57.7 h -10.2 z m -10.3,25.8 c -6.6,0 -10.4,-5.8 -10.4,-11.5 0,-5.5 3.4,-11.3 10.4,-11.3 6.3,0 10.2,6 10.2,11.4 0,5.4 -3.8,11.4 -10.2,11.4 z m 243.3,-31.8 c -12.1,0 -21,8.5 -21,20.3 0,12.2 9,20.7 21,20.7 12,0 21,-8.6 21,-20.7 0,-11.8 -8.8,-20.3 -21,-20.3 z m 0,31.8 c -7,0 -10.1,-6 -10.1,-11.5 0,-5.5 3.2,-11.3 10.1,-11.3 6.9,0 10.3,5.8 10.3,11.3 0,5.5 -3.2,11.5 -10.3,11.5 z m 133.6,-15.8 c -5.5,-1.3 -7.5,-2 -7.5,-4.3 0,-3 4,-3.7 5.7,-3.7 3.3,0 7,2 8.5,3.8 l 6.3,-6 c -3,-3.6 -8.7,-5.7 -14.7,-5.7 -7.8,0 -15.9,3.9 -15.9,12.5 0,7.5 5.9,9.7 11.6,11.1 6,1.4 8.2,2.4 8.2,4.9 0,3.5 -4,4.1 -5.5,4.1 -3.7,-0.2 -7.2,-1.8 -9.7,-4.6 l -6.5,6.6 c 3.5,4 9.6,6.3 15.8,6.3 10.5,0 16.7,-5 16.7,-13.2 0,-7.8 -7.6,-10.5 -13,-11.8 z M 521,179.8 h -13.8 l -13.8,16 h -0.2 v -37.3 h -10.7 v 60 h 10.7 v -19 h 0.2 l 14.3,19 h 14 l -16.6,-21.1 z m -158.4,-1 c -5,0 -8.5,2 -12,5.2 h -0.1 v -25.5 h -10.7 v 60 H 350 V 213 h 0.2 c 2.7,4.1 7.2,6.5 12.1,6.5 11,0 19.4,-8.6 19.4,-20.5 0,-11.8 -8.2,-20.3 -19.1,-20.3 z m -2.1,31.7 c -6.5,0 -10.3,-5.8 -10.3,-11.4 0,-5.6 4,-11.4 10.3,-11.4 6.9,0 10.3,5.8 10.3,11.3 0,5.7 -3.7,11.5 -10.3,11.5 z M 335.8,179.8 H 322 l -13.8,16 H 308 v -37.3 h -10.7 v 60 H 308 v -19 h 0.2 l 14.3,19 h 14 L 320,197.4 Z m 118.8,-1 c -12.2,0 -21,8.5 -21,20.2 0,12.2 9,20.7 21,20.7 12,0 21,-8.6 21,-20.7 0,-11.8 -8.9,-20.3 -21,-20.3 z m 0,31.7 c -7,0 -10.2,-6 -10.2,-11.5 0,-5.5 3.2,-11.3 10.2,-11.3 7,0 10.1,5.8 10.1,11.3 0,5.5 -3.2,11.5 -10.1,11.5 z"
     id="path1" /><circle
     class="st0"
     cx="86"
     cy="181"
     r="45"
     id="circle1" /><path
     class="st1"
     d="m 53.5,181 c 0,9.7 7.8,17.5 17.5,17.5 h 2.5 V 192 H 71 c -6.1,0 -11,-4.9 -11,-11 0,-6.1 4.9,-11 11,-11 h 6 v 34 c 0,3.6 2.9,6.5 6.5,6.5 v 0 -47 H 71 c -9.7,0 -17.5,7.8 -17.5,17.5 z M 101,163.5 h -2.5 v 6.5 h 2.5 c 6.1,0 11,4.9 11,11 0,6.1 -4.9,11 -11,11 h -6 v -34 c 0,-3.6 -2.9,-6.5 -6.5,-6.5 v 47 H 101 c 9.7,0 17.5,-7.8 17.5,-17.5 0,-9.7 -7.8,-17.5 -17.5,-17.5 z"
     id="path2" /><path
     d="m 187,146.3 c 1.7,0 3,-1.3 3,-3 0,-1.7 -1.3,-3 -3,-3 -1.7,0 -3,1.3 -3,3 0,1.7 1.3,3 3,3 z m -17.7,2 c -2.5,0 -4.9,1.4 -6,3.7 h -0.2 v -3.2 h -4.6 v 19.7 h 4.9 v -10.8 c 0,-2.6 1.5,-5.3 4.6,-5.3 3.1,0 3.7,2.9 3.7,5.2 v 11 h 4.9 v -12.5 c 0,-4 -2.1,-8 -7.3,-8 z m -20.8,20.2 h 5 v -19.7 h -5 z M 238,146.2 c 1.7,0 3,-1.3 3,-3 0,-1.7 -1.3,-3 -3,-3 -1.7,0 -3,1.3 -3,3 0,1.7 1.3,3 3,3 z m -8,2.6 v 4.4 h 5.5 v 15.3 h 5 v -15.3 h 5.5 v -4.4 z m -8.4,19.7 h 5 v -19.7 h -5 z m -42.5,-15.3 h 5.5 v 15.3 h 5 v -15.3 h 5.5 v -4.4 h -16 z m 32.6,6.5 c 0,2.6 -1.5,5.3 -4.6,5.3 -3.1,0 -3.7,-3 -3.7,-5.3 v -10.9 h -5 v 12.3 c 0,4 2.2,8 7.3,8 2.6,0 4.9,-1.4 6.1,-3.7 h 0.1 v 3.2 h 4.7 v -19.8 h -5 z"
     id="path3" /></g>
</svg>
