<?xml version="1.0" encoding="UTF-8" standalone="no"?>
<svg
   width="97.066666"
   height="48"
   version="1.1"
   id="svg3"
   xmlns="http://www.w3.org/2000/svg"
   xmlns:svg="http://www.w3.org/2000/svg">
  <defs
     id="defs3" />
  <linearGradient
     id="a"
     x2="0"
     y2="225"
     gradientUnits="userSpaceOnUse">
    <stop
       stop-color="#0ae"
       id="stop1" />
    <stop
       stop-color="#05a"
       offset="1"
       id="stop2" />
  </linearGradient>
  <g
     id="g3"
     transform="scale(0.21333333)">
    <path
       d="M 455,0 H 0 v 225 h 230"
       fill="url(#a)"
       id="path2"
       style="fill:url(#a)" />
    <path
       d="M 225,45 V 151 L 186,45 h -39 l -33,88 C 110,111 87,103 69,97 57,93 44,88 44,81 c 0,-5 7,-10 20,-9 9,1 17,1 33,9 L 113,54 C 98,46 78,42 62,42 43,42 27,48 17,58 10,65 7,74 6,84 c 0,14 5,24 16,32 9,6 20,10 30,13 13,4 23,8 23,15 -1,9 -11,11 -18,11 -12,1 -22,-1 -37,-10 L 6,172 c 15,9 31,13 50,13 13,0 33,-4 44,-14 l -2,9 h 38 l 7,-17 c 15,4 32,5 47,0 l 5,17 h 68 v -40 h 14 c 35,0 56,-17 56,-47 0,-34 -20,-48 -63,-48 z m -73,88 14,-45 h 1 l 14,45 c -10,3 -20,3 -29,0 z M 263,110 V 74 h 10 c 13,0 23,4 23,17 0,14 -10,19 -23,19 z"
       fill="#ffffff"
       id="path3" />
  </g>
</svg>
