<?xml version="1.0" encoding="UTF-8" standalone="no"?>
<!-- Generator: Adobe Illustrator 26.0.3, SVG Export Plug-In . SVG Version: 6.00 Build 0)  -->

<svg
   version="1.0"
   id="katman_1"
   x="0px"
   y="0px"
   viewBox="0 0 340.16665 48"
   xml:space="preserve"
   width="340.16666"
   height="48"
   xmlns="http://www.w3.org/2000/svg"
   xmlns:svg="http://www.w3.org/2000/svg"><defs
   id="defs12" />
<style
   type="text/css"
   id="style1">
	.st0{fill:#191A35;}
</style>











<g
   id="g12"
   transform="matrix(0.83333333,0,0,0.83333333,-80,-163.83333)"><path
     class="st0"
     d="m 124,234.7 v 7.2 L 96,247 v 7.2 l 35,-6.4 c 1.9,-0.4 3.7,-1.4 4.9,-3 1.3,-1.5 2,-3.5 2.1,-5.5 v -28.9 l -14,2.5 z"
     id="path1" /><path
     class="st0"
     d="m 103,202.9 c -1.9,0.4 -3.7,1.5 -4.9,3 -1.2,1.5 -2,3.5 -2.1,5.5 v 28.9 l 14,-2.5 v -28.9 l 28,-5.1 v -7.2 z"
     id="path2" /><path
     class="st0"
     d="m 166.3,235.5 h 8.7 c 0.2,6 5.3,9.6 12.7,9.6 5.8,0 9.6,-3.1 9.6,-7.7 0,-6.4 -6.4,-7.7 -13.1,-9.5 -7.7,-2 -16,-4.6 -16.2,-15.4 0,-8.1 7.2,-13.2 18.4,-13.2 10.7,0 17.9,5.8 18.2,14.6 h -8.4 c -0.3,-5.4 -4.3,-8.5 -10,-8.5 -5.8,0 -9.6,2.8 -9.5,6.9 0.1,5.6 4.9,7.3 10.7,8.8 8.3,2.1 18.6,3.9 18.6,15.8 0,8.6 -7.2,14.3 -18.3,14.3 -13,0.1 -21.4,-6.2 -21.4,-15.7 z"
     id="path3" /><path
     class="st0"
     d="m 210.6,202.2 c 0,-1 0.3,-2 0.8,-2.9 0.6,-0.9 1.4,-1.5 2.3,-1.9 1,-0.4 2,-0.5 3,-0.3 1,0.2 2,0.7 2.7,1.4 0.7,0.7 1.2,1.6 1.4,2.7 0.2,1 0.1,2.1 -0.3,3 -0.4,1 -1.1,1.8 -1.9,2.3 -0.9,0.6 -1.9,0.9 -2.9,0.9 -0.7,0 -1.4,-0.1 -2,-0.3 -0.6,-0.2 -1.2,-0.6 -1.7,-1.1 -0.5,-0.5 -0.9,-1.1 -1.1,-1.7 -0.2,-0.7 -0.3,-1.4 -0.3,-2.1 z m 1.1,48 v -35 h 8.3 v 35 z"
     id="path4" /><path
     class="st0"
     d="m 249.4,232.7 c 0,-11 7.2,-18.5 17.5,-18.5 9.6,0 16.1,7.2 16.1,17.8 v 2.8 h -25.2 c 0.4,6.4 4,11.2 9.5,11.2 1.7,0.1 3.3,-0.4 4.6,-1.5 1.3,-1 2.2,-2.5 2.5,-4.1 h 8.1 c -1.2,6.5 -6.8,10.9 -15,10.9 -11,0 -18.1,-7.6 -18.1,-18.6 z m 25.3,-2.9 c -0.2,-6 -3.3,-10.3 -7.9,-10.3 -4.6,0 -8.2,4.3 -8.9,10.3 z"
     id="path5" /><path
     class="st0"
     d="m 329.7,200.5 h 12.6 v 49.8 H 334 v -40 l -15.2,40 h -5.5 l -15.2,-39.9 v 39.9 h -8.4 v -49.8 h 12.5 l 13.8,37.2 z"
     id="path6" /><path
     class="st0"
     d="m 349,202.2 c 0,-1 0.3,-2 0.8,-2.9 0.6,-0.9 1.4,-1.5 2.3,-1.9 1,-0.4 2,-0.5 3,-0.3 1,0.2 1.9,0.7 2.7,1.4 0.7,0.7 1.2,1.6 1.4,2.6 0.2,1 0.1,2 -0.3,3 -0.4,0.9 -1.1,1.8 -1.9,2.3 -0.9,0.6 -1.9,0.9 -2.9,0.9 -0.7,0 -1.4,-0.1 -2,-0.3 -0.6,-0.2 -1.2,-0.6 -1.7,-1.1 -0.5,-0.5 -0.9,-1.1 -1.1,-1.7 -0.2,-0.6 -0.3,-1.3 -0.3,-2 z m 1.1,48 v -35 h 8.3 v 35 z"
     id="path7" /><path
     class="st0"
     d="m 365.1,250.2 v -35 h 8.3 v 5.7 c 1.2,-2.1 3,-3.8 5.1,-5 2.1,-1.2 4.5,-1.8 6.9,-1.8 7.4,0 11.6,4.8 11.6,15.4 v 20.6 h -8.3 v -20.7 c 0,-5.8 -2.1,-9.7 -6.4,-9.7 -5.5,0 -8.9,4.7 -8.9,12.5 v 17.9 z"
     id="path8" /><path
     class="st0"
     d="m 402.1,232.6 c 0,-11.2 6,-18.4 15,-18.4 2.3,0 4.6,0.7 6.5,1.9 2,1.2 3.5,2.9 4.6,5 v -23.9 h 8.3 v 53.1 h -8.3 v -5.8 c -1,2 -2.6,3.8 -4.6,5 -2,1.2 -4.2,1.9 -6.5,1.9 -9.1,-0.2 -15,-7.6 -15,-18.8 z m 26.4,0.1 c 0,-7.9 -3.6,-13.2 -9.1,-13.2 -5.4,0 -8.9,5.3 -8.9,13.2 0,7.9 3.6,13.3 8.9,13.3 5.5,0 9.1,-5.4 9.1,-13.3 z"
     id="path9" /><path
     class="st0"
     d="m 441.3,232.7 c 0,-11 7.2,-18.5 17.5,-18.5 9.5,0 16.1,7.2 16.1,17.8 v 2.8 h -25.2 c 0.4,6.4 4,11.2 9.5,11.2 1.7,0.1 3.3,-0.4 4.6,-1.5 1.3,-1 2.2,-2.5 2.5,-4.1 h 8.1 c -1.2,6.5 -6.8,10.9 -15,10.9 -11,0 -18.1,-7.6 -18.1,-18.6 z m 25.2,-2.9 c -0.2,-6 -3.3,-10.3 -7.9,-10.3 -4.6,0 -8.2,4.3 -8.9,10.3 z"
     id="path10" /><path
     class="st0"
     d="M 504.2,215.2 H 496 c -1.5,0 -2.9,0.5 -4.2,1.2 -1.3,0.8 -2.3,1.9 -2.9,3.2 v -4.4 h -8.3 v 35 h 8.3 v -27.5 h 15.3 z"
     id="path11" /><path
     class="st0"
     d="m 246.1,221.5 v -6.3 h -5 c -0.9,-0.1 -1.7,0.2 -2.4,0.7 -0.7,0.5 -1.2,1.2 -1.4,2.1 V 205.9 H 229 v 35.9 c 0.1,6.5 3.5,9.4 10.3,9.4 2.2,0 4.5,-0.4 6.6,-1 v -6.4 c -1.4,0.4 -2.9,0.7 -4.4,0.7 -2.8,0 -4.3,-1 -4.3,-4.2 l 0.1,-18.9 z"
     id="path12" /></g>
</svg>
