<?xml version="1.0" encoding="UTF-8" standalone="no"?>
<svg
   height="48"
   viewBox="0.001 0 302.73636 64.375579"
   width="225.64575"
   version="1.1"
   id="svg2"
   xmlns="http://www.w3.org/2000/svg"
   xmlns:svg="http://www.w3.org/2000/svg">
  <defs
     id="defs2" />
  <g
     id="g2"
     transform="matrix(0.0902583,0,0,0.0902583,9.0910266e-4,-0.1294104)">
    <path
       d="m 3335.258,476.767 c -10.404,0 -18.854,8.45 -18.854,18.854 0,10.404 8.449,18.854 18.854,18.854 10.402,0 18.854,-8.45 18.854,-18.854 0,-10.404 -8.452,-18.854 -18.854,-18.854 z m 0,34.718 c -8.77,0 -15.865,-7.136 -15.865,-15.864 0,-8.77 7.135,-15.864 15.865,-15.864 8.77,0 15.904,7.135 15.904,15.864 0,8.729 -7.135,15.864 -15.904,15.864 z m 6.138,-19.093 c 0,-3.428 -2.432,-5.461 -6.02,-5.461 h -6.02 v 17.18 h 2.949 v -6.218 h 3.229 l 3.109,6.218 h 3.189 l -3.428,-6.855 c 1.836,-0.838 2.992,-2.513 2.992,-4.864 z m -6.138,2.83 h -2.91 v -5.699 h 2.91 c 1.992,0 3.188,0.996 3.188,2.83 -10e-4,1.873 -1.235,2.869 -3.188,2.869 z M 1063.508,285.956 v -45.6 h -69.914 v 271.288 h 69.914 V 348.976 c 0,-29.457 18.894,-43.927 48.351,-43.927 h 38.266 v -64.692 h -32.686 c -25.59,-0.001 -47.832,13.352 -53.931,45.599 z m 152.107,-152.903 c -23.916,0 -42.252,18.894 -42.252,42.81 0,23.358 18.336,42.252 42.252,42.252 23.916,0 42.252,-18.894 42.252,-42.252 -10e-4,-23.917 -18.336,-42.81 -42.252,-42.81 z m -34.878,378.592 h 69.756 V 240.356 h -69.756 z M 1582.766,376 c 0,77.448 -62.779,140.229 -140.228,140.229 -31.251,0 -59.591,-10.244 -82.312,-27.544 v 102.601 h -69.755 v -350.93 h 69.755 v 22.959 c 22.721,-17.299 51.061,-27.543 82.312,-27.543 77.449,0 140.228,62.78 140.228,140.228 z m -70.193,0 c 0,-42.052 -34.12,-76.173 -76.173,-76.173 -42.053,0 -76.173,34.121 -76.173,76.173 0,42.053 34.121,76.173 76.173,76.173 42.053,0 76.173,-34.08 76.173,-76.173 z m 1282.579,-23.796 -40.697,-11.161 c -26.785,-6.976 -37.189,-15.187 -37.189,-29.337 0,-13.792 14.668,-23.438 35.635,-23.438 19.971,0 35.635,13.074 35.635,29.815 v 1.554 h 64.295 v -1.554 c 0,-49.228 -40.139,-82.312 -99.93,-82.312 -59.191,0 -102.201,33.044 -102.201,78.604 0,35.436 23.477,62.142 64.453,73.223 l 38.984,10.643 c 29.615,8.211 40.617,17.3 40.617,33.603 0,17.18 -15.904,28.739 -39.582,28.739 -24.674,0 -41.295,-15.626 -41.295,-38.824 v -1.555 h -68.24 v 1.555 c 0,55.645 44.803,94.548 108.979,94.548 61.822,0 106.705,-37.986 106.705,-90.283 -10e-4,-25.67 -11.481,-59.231 -66.169,-73.82 z M 1830.219,240.356 h 69.754 v 271.288 h -69.754 v -22.96 c -22.721,17.3 -51.062,27.544 -82.312,27.544 -77.447,0 -140.227,-62.78 -140.227,-140.229 0,-77.449 62.78,-140.228 140.227,-140.228 31.25,0 59.592,10.244 82.312,27.543 z m 0,135.644 c 0,-42.092 -34.121,-76.173 -76.174,-76.173 -42.053,0 -76.172,34.121 -76.172,76.173 0,42.053 34.119,76.173 76.172,76.173 42.092,0 76.174,-34.08 76.174,-76.173 z M 2151.85,143.815 h 69.756 v 367.869 h -69.756 v -22.96 c -22.721,17.3 -51.061,27.544 -82.311,27.544 -77.449,0 -140.229,-62.78 -140.229,-140.229 0,-77.449 62.779,-140.228 140.229,-140.228 31.25,0 59.59,10.244 82.311,27.543 z m 0,232.185 c 0,-42.052 -34.121,-76.173 -76.174,-76.173 -42.051,0 -76.172,34.121 -76.172,76.173 0,42.053 34.08,76.173 76.172,76.173 42.053,0 76.174,-34.08 76.174,-76.173 z m 393.619,135.645 h 69.754 V 240.356 h -69.754 z m 34.877,-378.592 c -23.916,0 -42.252,18.894 -42.252,42.81 0,23.358 18.336,42.252 42.252,42.252 23.916,0 42.252,-18.894 42.252,-42.252 0,-23.917 -18.336,-42.81 -42.252,-42.81 z M 3162.822,376 c 0,77.448 -62.779,140.229 -140.229,140.229 -77.447,0 -140.227,-62.78 -140.227,-140.229 0,-77.449 62.779,-140.228 140.227,-140.228 77.45,0 140.229,62.78 140.229,140.228 z m -64.054,0 c 0,-42.052 -34.121,-76.173 -76.174,-76.173 -42.053,0 -76.172,34.121 -76.172,76.173 0,42.053 34.08,76.173 76.172,76.173 42.052,0 76.174,-34.08 76.174,-76.173 z M 1027.793,143.815 H 760.212 v 62.222 h 99.053 v 305.607 h 69.516 V 206.037 h 99.053 v -62.222 z m 1353.213,293.53 -62.062,-196.988 h -73.264 l 93.074,271.288 h 83.945 l 93.631,-271.288 h -73.264 z m 884.017,-151.389 v -45.6 h -69.914 v 271.288 h 69.914 V 348.976 c 0,-29.457 18.895,-43.927 48.35,-43.927 h 38.266 v -64.692 h -32.684 c -25.592,-0.001 -47.793,13.352 -53.932,45.599 z"
       id="path1" />
    <circle
       cx="356.74899"
       cy="356.74799"
       fill="#34e0a1"
       r="356.74799"
       id="circle1" />
    <path
       d="m 577.095,287.152 43.049,-46.836 h -95.465 c -47.792,-32.646 -105.51,-51.659 -167.931,-51.659 -62.342,0 -119.899,19.054 -167.612,51.659 H 93.432 l 43.049,46.836 c -26.387,24.075 -42.929,58.754 -42.929,97.259 0,72.665 58.914,131.578 131.579,131.578 34.519,0 65.968,-13.313 89.446,-35.077 l 42.172,45.919 42.172,-45.879 c 23.478,21.764 54.887,35.037 89.406,35.037 72.665,0 131.658,-58.913 131.658,-131.578 0.039,-38.545 -16.502,-73.223 -42.89,-97.259 z M 225.17,473.458 c -49.188,0 -89.047,-39.859 -89.047,-89.047 0,-49.188 39.86,-89.048 89.047,-89.048 49.187,0 89.047,39.86 89.047,89.048 0,49.188 -39.86,89.047 -89.047,89.047 z M 356.788,381.82 c 0,-58.595 -42.61,-108.898 -98.853,-130.383 30.413,-12.716 63.776,-19.771 98.813,-19.771 35.037,0 68.439,7.055 98.853,19.771 -56.202,21.525 -98.813,71.789 -98.813,130.383 z m 131.579,91.638 c -49.188,0 -89.048,-39.859 -89.048,-89.047 0,-49.188 39.86,-89.048 89.048,-89.048 49.188,0 89.047,39.86 89.047,89.048 0,49.188 -39.86,89.047 -89.047,89.047 z m 0,-135.764 c -25.79,0 -46.677,20.887 -46.677,46.677 0,25.789 20.887,46.676 46.677,46.676 25.789,0 46.676,-20.887 46.676,-46.676 -10e-4,-25.75 -20.887,-46.677 -46.676,-46.677 z m -216.521,46.717 c 0,25.789 -20.887,46.676 -46.676,46.676 -25.789,0 -46.676,-20.887 -46.676,-46.676 0,-25.79 20.887,-46.677 46.676,-46.677 25.789,-0.04 46.676,20.887 46.676,46.677 z"
       id="path2" />
  </g>
</svg>
