<?xml version="1.0" encoding="UTF-8" standalone="no"?>
<!-- Generator: Adobe Illustrator 22.0.1, SVG Export Plug-In . SVG Version: 6.00 Build 0)  -->

<svg
   version="1.0"
   id="katman_1"
   x="0px"
   y="0px"
   viewBox="0 0 47.919639 47.999997"
   xml:space="preserve"
   width="47.91964"
   height="47.999996"
   xmlns="http://www.w3.org/2000/svg"
   xmlns:svg="http://www.w3.org/2000/svg"><defs
   id="defs2" />
<style
   type="text/css"
   id="style1">
	.st0{fill:#1EB4EA;}
	.st1{fill:#FFFFFF;}
</style>

<g
   id="g2"
   transform="scale(0.08928571)"><path
     class="st0"
     d="M 268.3,537.6 C 416.5,537.6 536.7,417.2 536.7,268.8 536.7,120.3 416.6,0 268.3,0 120,0 0,120.2 0,268.7 0,417.2 120.1,537.6 268.3,537.6"
     id="path1" /><path
     class="st1"
     d="m 128.4,268 45.8,-46 c 3,-3.4 2.6,-8.6 -0.8,-11.6 -3.1,-2.7 -7.8,-2.7 -10.9,0.1 l -45.8,45.8 -45.9,-45.9 c -3.2,-3.2 -8.4,-3.2 -11.6,0.1 -3.2,3.2 -3.2,8.4 0.1,11.6 l 45.8,45.9 -45.8,45.9 c -3.3,3.1 -3.5,8.3 -0.5,11.6 3.1,3.3 8.3,3.5 11.6,0.5 0.1,-0.1 0.2,-0.2 0.4,-0.3 l 45.9,-45.9 45.7,45.7 c 3.1,3.3 8.3,3.5 11.6,0.4 1.7,-1.6 2.6,-3.7 2.6,-6 0,-2.2 -0.9,-4.3 -2.4,-5.8 L 128.4,268 m 272.3,0 c 0,8.2 6.7,14.9 14.9,14.9 8.3,0 14.9,-6.7 14.9,-14.9 0,-8.3 -6.7,-14.9 -14.9,-14.9 -8.2,0 -14.9,6.7 -14.9,14.9 m -28.3,0 c 0,-23.8 19.4,-43.3 43.2,-43.3 23.8,0 43.2,19.4 43.2,43.3 0,23.8 -19.4,43.3 -43.2,43.3 -23.9,-0.1 -43.2,-19.4 -43.2,-43.3 m -17,0 c 0,33.2 27,60.3 60.2,60.3 33.2,0 60.2,-27 60.2,-60.3 0,-33.2 -27,-60.3 -60.2,-60.3 -33.2,0.1 -60.2,27.1 -60.2,60.3 m -4.2,-59.2 h -2.5 c -7.6,0 -14.9,2.4 -21,7.1 -0.9,-3.8 -4.2,-6.4 -8.1,-6.5 -4.5,0 -8.1,3.6 -8.1,8.1 0,0 0,0 0,0 V 319 c 0.3,4.5 4.1,8 8.7,7.7 4.2,-0.2 7.5,-3.6 7.7,-7.8 v -62.4 c 0,-20.8 1.9,-29.2 19.7,-31.4 1.7,-0.2 3.4,-0.2 3.5,-0.2 4.9,-0.2 8.3,-3.5 8.3,-8.1 -0.1,-4.3 -3.7,-8 -8.2,-8 m -157.6,49.3 c 0,-0.2 0,-0.5 0,-0.7 5.9,-23.3 29.5,-37.4 52.8,-31.5 15.7,4 27.9,16.4 31.6,32.1 z m 101.2,-1.6 c -3.5,-16.8 -12.7,-30.5 -26.6,-39.4 -20.7,-13 -47.1,-12.3 -67,1.8 -20.2,14.5 -29.5,39.9 -23.6,64 6.2,24 26.4,41.9 51.1,45 7.3,0.9 14.3,0.5 21.6,-1.4 6.4,-1.6 12.5,-4.2 18,-7.7 5.8,-3.7 10.7,-8.7 15.4,-14.6 0.1,-0.1 0.2,-0.2 0.3,-0.3 3.3,-4.1 2.7,-9.9 -0.9,-12.6 -3,-2.3 -8.1,-3.3 -12.1,1.9 -0.9,1.2 -1.8,2.5 -2.9,3.8 -3.2,3.5 -7.1,6.9 -11.9,9.6 -6,3.2 -12.9,5.1 -20.2,5.1 -23.9,-0.3 -36.6,-17 -41.2,-28.9 -0.8,-2.3 -1.4,-4.6 -1.8,-6.9 l -0.1,-1.3 h 85.7 c 11.6,-0.3 18,-8.6 16.2,-18.1 z"
     id="path2" /></g>
</svg>
